<?xml version="1.0" encoding="UTF-8"?>
<svg width="120px" height="120px" viewBox="0 0 120 120" version="1.1" xmlns="http://www.w3.org/2000/svg" xmlns:xlink="http://www.w3.org/1999/xlink">
    <!-- Generator: Sketch 49.3 (51167) - http://www.bohemiancoding.com/sketch -->
    <title>判斷力</title>
    <desc>Created with Sketch.</desc>
    <defs>
        <linearGradient x1="50%" y1="0%" x2="50%" y2="100%" id="linearGradient-1">
            <stop stop-color="#A591D5" offset="0%"></stop>
            <stop stop-color="#6C58AA" offset="100%"></stop>
        </linearGradient>
    </defs>
    <g id="Page-1" stroke="none" stroke-width="1" fill="none" fill-rule="evenodd">
        <g id="創順官網" transform="translate(-476.000000, -2255.000000)">
            <g id="創順團隊" transform="translate(281.000000, 2181.000000)">
                <g id="Group-3" transform="translate(61.000000, 71.000000)">
                    <g id="價值觀">
                        <g id="判斷力" transform="translate(134.000000, 3.000000)">
                            <circle id="Oval-3" fill="url(#linearGradient-1)" opacity="0.2" cx="60" cy="60" r="60"></circle>
                            <circle id="Oval-3" fill="url(#linearGradient-1)" cx="60" cy="60" r="50"></circle>
                            <g id="Page-1" transform="translate(34.000000, 30.000000)" fill="#FFFFFF">
                                <path d="M20.0147309,48.918543 C20.1316174,49.0578513 20.211853,49.2302327 20.2395888,49.4236607 C20.3832205,50.4258784 20.9210965,52.2068193 21.7531699,52.7169481 C22.8041579,53.223068 30.3938559,52.914385 34.4690344,52.7470146 C36.7750664,52.6538084 38.7660992,52.5726287 40.0607657,52.5726287 C44.6024997,52.5726287 44.8550934,52.3050366 45.0314137,51.3799897 C45.1364135,50.8247611 44.6252827,49.6491597 44.084435,48.4044053 C43.2969369,46.5944002 42.3182601,44.3414148 42.0468457,41.6494581 C41.7199597,38.4002683 43.4435403,35.3404977 44.9640554,32.6405232 C45.8466475,31.0730547 46.6797115,29.5937814 47.0273993,28.2638385 C48.5508861,22.423916 50.5062586,8.33373744 35.8122386,3.60026326 C19.4570436,-1.6703996 9.98923699,7.39766611 7.26815888,12.9299078 C4.88882519,17.7666104 7.29490409,25.1178772 7.31966818,25.1910391 C7.42863017,25.5187643 7.36424354,25.8815671 7.14631956,26.148157 C7.11164983,26.1912523 3.65656411,30.4546864 2.30048259,33.0023238 C1.94090802,33.6788207 1.88543646,34.2731358 2.13109622,34.8193445 C2.53425559,35.7183338 3.67241313,36.3427154 4.62038246,36.5622011 C5.31080527,36.7205515 5.99330357,36.9520637 6.3132556,37.5584054 C6.61042467,38.122654 6.41330252,38.642805 6.30731222,38.9224237 C6.28452926,38.9815546 6.25085009,39.0697497 6.24688784,39.1018207 C6.71542441,39.8143975 7.1423573,41.9892099 7.78820475,45.4769275 C7.98334577,46.5322627 8.17056229,47.546507 8.34093922,48.3552967 C8.37263725,48.5046271 8.44098614,48.6800152 8.71636281,48.8373634 C9.99518038,49.5749956 13.6196525,49.0949333 17.9513869,47.6136556 C21.777934,46.3047593 28.4731531,40.8256351 28.5395209,40.7695109 C28.9634821,40.4207392 29.5885277,40.4858833 29.9332438,40.9158347 C30.27796,41.3447839 30.2135733,41.976181 29.7886216,42.325955 C29.5340467,42.5354185 24.1325036,46.9551986 20.0147309,48.918543 M25.7312732,55 C22.9190632,55 21.387652,54.8366385 20.7269461,54.4317426 C18.8270451,53.2681678 18.3287917,50.0670845 18.2782729,49.7062861 C18.2743107,49.6772218 18.271339,49.6481575 18.2693578,49.6190932 C15.241205,50.6293286 10.1536705,51.9733026 7.73570488,50.5792177 C7.02646137,50.1703129 6.56485874,49.5449291 6.40339688,48.7722192 C6.23004826,47.9483963 6.03986005,46.9191187 5.84075678,45.8467458 C5.47920108,43.8894146 4.87198561,40.613165 4.5460902,40.0659541 C4.18849675,39.4756479 4.23703436,38.9364548 4.34005297,38.5546098 C4.29151536,38.5425832 4.23901549,38.5295544 4.18057224,38.5155233 C2.79576437,38.1958159 1.05633475,37.2747778 0.327279966,35.6481785 C-0.0243700998,34.8644443 -0.270029864,33.6046566 0.55610015,32.0522214 C1.75666319,29.7972316 4.34599636,26.4698689 5.27811667,25.2982764 C4.72241051,23.3850428 3.12165979,16.8596034 5.49505009,12.0369318 C8.47763699,5.97351477 18.7794981,-3.99053356 36.4135107,1.69003634 C53.185733,7.09299193 50.2437592,23.7869321 48.9431492,28.7739673 C48.5300842,30.3584735 47.6336242,31.948993 46.6856549,33.6327187 C45.2443849,36.1913805 43.7545773,38.8352308 44.0170766,41.4460079 C44.2577836,43.8232683 45.1671209,45.9158988 45.8981568,47.5976201 C46.6252305,49.2703214 47.1987668,50.5902421 46.9768806,51.758828 C46.4399951,54.5770641 44.038869,54.5770641 40.0607657,54.5770641 C38.8067123,54.5770641 36.8335096,54.6572415 34.5492701,54.7494456 C30.7504588,54.9057915 27.8708905,55 25.7312732,55" id="Fill-1" fill-opacity="0.6"></path>
                                <path d="M31.998,14.856 C31.832,14.856 31.665,14.869 31.497,14.894 C30.189,15.094 29.095,16.189 28.895,17.496 C28.74,18.512 29.061,19.506 29.777,20.223 C30.494,20.94 31.489,21.258 32.504,21.105 C33.811,20.905 34.905,19.81 35.106,18.503 C35.261,17.487 34.94,16.493 34.224,15.777 C33.626,15.178 32.834,14.856 31.998,14.856 M31.996,23.144 C30.633,23.144 29.341,22.616 28.363,21.637 C27.192,20.465 26.665,18.846 26.918,17.193 C27.252,15.01 29.01,13.252 31.194,12.918 C32.848,12.662 34.467,13.191 35.638,14.362 C36.809,15.534 37.336,17.153 37.082,18.806 C36.748,20.989 34.99,22.747 32.807,23.082 C32.535,23.124 32.264,23.144 31.996,23.144 M26.984,24.46 C27.177,24.46 27.371,24.516 27.541,24.63 C28.107,25.01 28.71,25.315 29.333,25.535 C29.733,25.676 30,26.054 30,26.478 L30,28 L33,28 L33,26.756 C33,26.288 33.326,25.882 33.783,25.781 C34.559,25.607 35.329,25.295 36.07,24.854 C36.456,24.626 36.942,24.68 37.266,24.985 L38.499,26.143 L40.62,24.022 L39.312,22.793 C38.988,22.489 38.905,22.006 39.107,21.611 C39.434,20.97 39.658,20.359 39.792,19.741 C39.893,19.282 40.299,18.954 40.769,18.954 L42,18.954 L42,15.954 L40.458,15.954 C40.038,15.954 39.662,15.69 39.518,15.294 C39.287,14.656 38.99,14.066 38.634,13.54 C38.366,13.143 38.417,12.612 38.756,12.273 L39.586,11.443 L37.465,9.322 L36.317,10.47 C36.026,10.76 35.587,10.845 35.208,10.679 C34.748,10.477 34.268,10.318 33.778,10.207 C33.323,10.103 33,9.699 33,9.232 L33,8 L30,8 L30,9.512 C30,9.937 29.732,10.315 29.331,10.456 C28.88,10.614 28.426,10.831 27.942,11.118 C27.559,11.347 27.072,11.292 26.746,10.987 L25.521,9.835 L23.401,11.957 L24.691,13.169 C25.016,13.474 25.099,13.958 24.895,14.354 C24.719,14.696 24.583,15.002 24.479,15.292 C24.337,15.689 23.96,15.954 23.539,15.954 L22,15.954 L22,18.954 L23.242,18.954 C23.709,18.954 24.115,19.278 24.218,19.734 C24.349,20.316 24.5,20.797 24.68,21.205 C24.846,21.583 24.764,22.023 24.472,22.315 L23.323,23.464 L25.444,25.585 L26.276,24.753 C26.47,24.56 26.726,24.46 26.984,24.46 M33,30 L30,30 C28.897,30 28,29.102 28,28 L28,27.158 C27.706,27.028 27.416,26.884 27.133,26.725 L26.858,27 C26.079,27.778 24.809,27.778 24.03,27 L21.909,24.878 C21.53,24.501 21.322,23.998 21.323,23.462 C21.323,22.928 21.531,22.426 21.91,22.049 L22.597,21.362 C22.552,21.23 22.509,21.094 22.468,20.954 L22,20.954 C20.897,20.954 20,20.056 20,18.954 L20,15.954 C20,14.851 20.897,13.954 22,13.954 L22.606,13.954 L22.031,13.414 C21.634,13.042 21.41,12.535 21.401,11.989 C21.393,11.443 21.6,10.929 21.986,10.543 L24.107,8.421 C24.877,7.653 26.1,7.635 26.892,8.378 L27.587,9.032 C27.725,8.962 27.863,8.897 28,8.835 L28,8 C28,6.897 28.897,6 30,6 L33,6 C34.103,6 35,6.897 35,8 L35,8.467 C35.123,8.506 35.246,8.547 35.368,8.591 L36.051,7.908 C36.83,7.128 38.1,7.128 38.879,7.908 L41,10.029 C41.78,10.809 41.78,12.077 41.001,12.857 L40.727,13.13 C40.874,13.396 41.01,13.67 41.135,13.954 L42,13.954 C43.103,13.954 44,14.851 44,15.954 L44,18.954 C44,20.056 43.103,20.954 42,20.954 L41.536,20.954 C41.443,21.246 41.334,21.539 41.21,21.832 L41.99,22.565 C42.388,22.939 42.611,23.447 42.62,23.993 C42.628,24.539 42.42,25.051 42.034,25.437 L39.914,27.557 C39.144,28.328 37.921,28.344 37.129,27.6 L36.425,26.939 C35.958,27.173 35.482,27.368 35,27.521 L35,28 C35,29.102 34.103,30 33,30" id="Fill-4"></path>
                            </g>
                        </g>
                    </g>
                </g>
            </g>
        </g>
    </g>
</svg>