<?xml version="1.0" encoding="UTF-8"?>
<svg width="130px" height="130px" viewBox="0 0 130 130" version="1.1" xmlns="http://www.w3.org/2000/svg" xmlns:xlink="http://www.w3.org/1999/xlink">
    <!-- Generator: Sketch 49.3 (51167) - http://www.bohemiancoding.com/sketch -->
    <title>影響力</title>
    <desc>Created with Sketch.</desc>
    <defs>
        <linearGradient x1="50%" y1="0%" x2="50%" y2="100%" id="linearGradient-1">
            <stop stop-color="#00A2E1" offset="0%"></stop>
            <stop stop-color="#0069BF" offset="100%"></stop>
        </linearGradient>
    </defs>
    <g id="Page-1" stroke="none" stroke-width="1" fill="none" fill-rule="evenodd">
        <g id="創順官網" transform="translate(-342.000000, -2425.000000)">
            <g id="創順團隊" transform="translate(281.000000, 2181.000000)">
                <g id="Group-3" transform="translate(61.000000, 71.000000)">
                    <g id="價值觀">
                        <g id="影響力" transform="translate(0.000000, 173.000000)">
                            <circle id="Oval-3" fill-opacity="0.1" fill="url(#linearGradient-1)" cx="65" cy="65" r="65"></circle>
                            <g id="Group-11" transform="translate(10.000000, 10.000000)">
                                <circle id="Oval-3" fill="url(#linearGradient-1)" cx="55" cy="55" r="55"></circle>
                                <g id="Page-1" transform="translate(25.287356, 25.287356)" fill="#FFFFFF">
                                    <path d="M40.7173265,2.18165427 C37.6833355,2.18165427 35.2149851,4.62837954 35.2149851,7.63578995 C35.2149851,10.6432004 37.6833355,13.0899256 40.7173265,13.0899256 C43.7513176,13.0899256 46.2196679,10.6432004 46.2196679,7.63578995 C46.2196679,4.62837954 43.7513176,2.18165427 40.7173265,2.18165427 M40.7173265,15.2715799 C36.4695189,15.2715799 33.0140485,11.8463827 33.0140485,7.63578995 C33.0140485,3.42519721 36.4695189,0 40.7173265,0 C44.9651341,0 48.4206045,3.42519721 48.4206045,7.63578995 C48.4206045,11.8463827 44.9651341,15.2715799 40.7173265,15.2715799 M7.70327799,21.8165427 C4.66928693,21.8165427 2.20093657,24.263268 2.20093657,27.2706784 C2.20093657,30.2780888 4.66928693,32.7248141 7.70327799,32.7248141 C10.7372691,32.7248141 13.2056194,30.2780888 13.2056194,27.2706784 C13.2056194,24.263268 10.7372691,21.8165427 7.70327799,21.8165427 M7.70327799,34.9064683 C3.45547041,34.9064683 0,31.4812711 0,27.2706784 C0,23.0600856 3.45547041,19.6348884 7.70327799,19.6348884 C11.9510856,19.6348884 15.406556,23.0600856 15.406556,27.2706784 C15.406556,31.4812711 11.9510856,34.9064683 7.70327799,34.9064683 M46.2196679,42.5422583 C43.1856769,42.5422583 40.7173265,44.9889835 40.7173265,47.996394 C40.7173265,51.0038044 43.1856769,53.4505296 46.2196679,53.4505296 C49.253659,53.4505296 51.7220094,51.0038044 51.7220094,47.996394 C51.7220094,44.9889835 49.253659,42.5422583 46.2196679,42.5422583 M46.2196679,55.6321839 C41.9718604,55.6321839 38.51639,52.2069867 38.51639,47.996394 C38.51639,43.7858012 41.9718604,40.360604 46.2196679,40.360604 C50.4674755,40.360604 53.9229459,43.7858012 53.9229459,47.996394 C53.9229459,52.2069867 50.4674755,55.6321839 46.2196679,55.6321839" id="Fill-1"></path>
                                    <path d="M18.7017751,5.50891169 L9.76335462,21.2602209 C9.56086845,21.6158305 9.18780971,21.8165427 8.80264581,21.8165427 C8.61996807,21.8165427 8.4350894,21.7718188 8.26451682,21.6769168 C7.7340911,21.3813027 7.54591103,20.7158981 7.84413793,20.1912103 L17.7483525,2.73797611 C17.9727944,2.34310243 18.4085325,2.13852096 18.8360362,2.18793295 L34.9537339,3.53100744 C35.5589915,3.58118549 36.009083,4.10914582 35.9584615,4.70910074 C35.9067395,5.30905567 35.3796152,5.75629479 34.7699557,5.70502592 L20.6707561,4.53020509 L30.1416968,21.4436584 L36.7534398,12.7626775 C37.1176948,12.2827135 37.8087888,12.1856299 38.2940954,12.5499662 C38.7794019,12.9121208 38.8762431,13.5960694 38.5097871,14.0771242 L31.9114551,22.7403978 L55.6858961,27.777913 L44.6724095,13.1979175 C44.3081545,12.7157719 44.4071967,12.0329141 44.8936037,11.6718503 C45.3800106,11.3096957 46.0700043,11.4078702 46.4342593,11.8911066 L59.2062942,28.7989272 C59.4333593,29.0987282 59.4850125,29.488439 59.3569228,29.8306862 L58.0948212,30.5191616 C58.1707535,30.535524 58.2488868,30.5431598 58.3248191,30.5431598 C58.6945764,30.5431598 59.0467263,30.3577192 59.2514134,30.0402885 C59.2810976,29.9943868 59.3069701,29.9468702 59.329044,29.8981599 C59.3277869,29.9012063 59.3264182,29.9042084 59.3250347,29.9072076 L52.773947,44.0879603 C52.5890683,44.4882939 52.1895983,44.7239126 51.7725209,44.7239126 C51.6184553,44.7239126 51.4632893,44.6922786 51.3147261,44.6246473 C50.762291,44.373757 50.5190875,43.7268966 50.7721952,43.1782105 L56.7526658,30.2348131 L32.1451482,25.0214744 L42.2707476,43.1040343 C42.5656731,43.6309038 42.3730911,44.2941267 41.8415649,44.5875592 C41.6731933,44.6791886 41.4894151,44.7239126 41.3089383,44.7239126 C40.9215734,44.7239126 40.5474142,44.5210187 40.3460285,44.1621366 L29.8593905,25.434654 L11.0487618,50.1320505 L39.5942986,49.5530043 C40.2006567,49.5562768 40.7046711,50.0187875 40.7167763,50.6220149 C40.7299819,51.2241515 40.2468763,51.7226595 39.6394178,51.7346586 L8.82630587,52.3597025 L8.80319604,52.3597025 C8.69175481,52.3597025 8.58406453,52.3432367 8.48251645,52.3125905 C8.47618973,52.3106658 8.46988967,52.3086878 8.46361665,52.3066571 C8.03136765,52.1677068 7.71487182,51.7704566 7.70281115,51.2952869 L6.60501064,33.8843633 C6.56649425,33.2822267 7.02759046,32.7651747 7.63504896,32.7269957 C8.24250745,32.6909984 8.76302895,33.1469642 8.80154534,33.7480099 L9.71713495,48.2603741 L27.4474132,24.9811559 L14.4865645,27.1179626 C13.8824074,27.2172279 13.3200681,26.8147126 13.221026,26.2213027 C13.1208834,25.6268019 13.5258557,25.0650259 14.1256109,24.9668515 L28.2893686,22.6308425 L18.7017751,5.50891169 Z" id="Combined-Shape" fill-opacity="0.6"></path>
                                </g>
                            </g>
                        </g>
                    </g>
                </g>
            </g>
        </g>
    </g>
</svg>