<?xml version="1.0" encoding="UTF-8"?>
<svg width="120px" height="120px" viewBox="0 0 120 120" version="1.1" xmlns="http://www.w3.org/2000/svg" xmlns:xlink="http://www.w3.org/1999/xlink">
    <!-- Generator: Sketch 49.3 (51167) - http://www.bohemiancoding.com/sketch -->
    <title>溝通</title>
    <desc>Created with Sketch.</desc>
    <defs>
        <linearGradient x1="50%" y1="0%" x2="50%" y2="100%" id="linearGradient-1">
            <stop stop-color="#51D0E4" offset="0%"></stop>
            <stop stop-color="#28A3C4" offset="100%"></stop>
        </linearGradient>
    </defs>
    <g id="Page-1" stroke="none" stroke-width="1" fill="none" fill-rule="evenodd">
        <g id="創順官網" transform="translate(-854.000000, -2531.000000)">
            <g id="創順團隊" transform="translate(281.000000, 2181.000000)">
                <g id="Group-3" transform="translate(61.000000, 71.000000)">
                    <g id="價值觀">
                        <g id="溝通" transform="translate(512.000000, 279.000000)">
                            <circle id="Oval-3" fill-opacity="0.1" fill="url(#linearGradient-1)" cx="60" cy="60" r="60"></circle>
                            <circle id="Oval-3" fill="url(#linearGradient-1)" cx="60" cy="58" r="50"></circle>
                            <path d="M37.6263709,39.704743 C36.6434692,39.704743 35.7816641,40.5074538 35.7816641,41.4232648 L35.780655,68.5062483 C35.780655,69.4220593 36.64246,70.225771 37.6263709,70.225771 L47.4442879,70.2317764 C48.0003237,70.2317764 48.4524181,70.6791726 48.4524181,71.2326627 L48.4524181,78.9895318 L57.8586062,70.4860015 C58.0442879,70.3188535 58.2874905,70.225771 58.5387662,70.225771 L82.5986672,70.225771 C83.5220297,70.225771 84.219345,69.486116 84.219345,68.5062483 L84.219345,41.4232648 C84.219345,40.4433971 83.5220297,39.704743 82.5986672,39.704743 L37.6263709,39.704743 Z M47.4432788,82.2574257 C47.3050267,82.2574257 47.1657654,82.2294009 47.0345773,82.1713495 C46.6692688,82.0122086 46.4341394,81.6528904 46.4341394,81.2565394 L46.4341394,72.2325482 L37.6253618,72.2275437 C35.5324067,72.2275437 33.7623762,70.5240352 33.7623762,68.5062483 L33.7633854,41.4232648 C33.7633854,39.4064788 35.5324067,37.7029703 37.6263709,37.7029703 L82.5986672,37.7029703 C84.639147,37.7029703 86.2376238,39.3374177 86.2376238,41.4232648 L86.2376238,68.5062483 C86.2376238,70.5930963 84.639147,72.2275437 82.5986672,72.2275437 L58.9293031,72.2275437 L48.1224296,81.9961944 C47.9327113,82.167346 47.6895088,82.2574257 47.4432788,82.2574257 Z" id="Fill-1" fill-opacity="0.6" fill="#FFFFFF"></path>
                            <path d="M76.324966,55.5100575 L58.6097247,55.5100575 C58.0567495,55.5100575 57.607958,55.0729891 57.607958,54.5344583 C57.607958,53.9959276 58.0567495,53.5588592 58.6097247,53.5588592 L76.324966,53.5588592 C76.878943,53.5588592 77.3267327,53.9959276 77.3267327,54.5344583 C77.3267327,55.0729891 76.878943,55.5100575 76.324966,55.5100575 Z M76.324966,62.4554455 L58.6097247,62.4554455 C58.0567495,62.4554455 57.607958,62.0183771 57.607958,61.4798464 C57.607958,60.9413156 58.0567495,60.5042472 58.6097247,60.5042472 L76.324966,60.5042472 C76.878943,60.5042472 77.3267327,60.9413156 77.3267327,61.4798464 C77.3267327,62.0183771 76.878943,62.4554455 76.324966,62.4554455 Z M76.324966,48.5650597 L44.665133,48.5650597 C44.111156,48.5650597 43.6633663,48.1279913 43.6633663,47.5894606 C43.6633663,47.0509298 44.111156,46.6138614 44.665133,46.6138614 L76.324966,46.6138614 C76.878943,46.6138614 77.3267327,47.0509298 77.3267327,47.5894606 C77.3267327,48.1279913 76.878943,48.5650597 76.324966,48.5650597 Z" id="Combined-Shape" fill="#FFFFFF"></path>
                        </g>
                    </g>
                </g>
            </g>
        </g>
    </g>
</svg>