<?xml version="1.0" encoding="UTF-8"?>
<svg width="130px" height="130px" viewBox="0 0 130 130" version="1.1" xmlns="http://www.w3.org/2000/svg" xmlns:xlink="http://www.w3.org/1999/xlink">
    <!-- Generator: Sketch 49.3 (51167) - http://www.bohemiancoding.com/sketch -->
    <title>無私</title>
    <desc>Created with Sketch.</desc>
    <defs>
        <linearGradient x1="50%" y1="0%" x2="50%" y2="100%" id="linearGradient-1">
            <stop stop-color="#7DE1E1" offset="0%"></stop>
            <stop stop-color="#47C0C0" offset="100%"></stop>
        </linearGradient>
    </defs>
    <g id="Page-1" stroke="none" stroke-width="1" fill="none" fill-rule="evenodd">
        <g id="創順官網" transform="translate(-884.000000, -2282.000000)">
            <g id="創順團隊" transform="translate(281.000000, 2181.000000)">
                <g id="Group-3" transform="translate(61.000000, 71.000000)">
                    <g id="價值觀">
                        <g id="無私" transform="translate(542.000000, 30.000000)">
                            <circle id="Oval-3" fill="url(#linearGradient-1)" opacity="0.1" cx="65" cy="65" r="65"></circle>
                            <circle id="Oval-3" fill="url(#linearGradient-1)" cx="65" cy="65" r="55"></circle>
                            <g id="Page-1" transform="translate(23.000000, 43.000000)" fill="#FFFFFF">
                                <path d="M71.0831221,34.7515419 C72.7848459,34.9795825 78.684155,34.4629109 80.7757883,34.0696235 C80.6744558,32.9217091 80.2691262,30.4363973 79.8737094,28.0171842 C79.4705826,25.5472954 79.0134853,22.746913 78.6268801,19.9487339 C78.2127389,16.9654785 77.902133,14.013069 77.6532077,11.640125 C77.4593544,9.80037738 77.2599939,7.90995403 77.1079953,7.04075589 C75.5968205,7.02092627 71.0996437,7.6003917 66.991275,8.30103812 C67.1190419,10.3908593 67.4913284,15.5531692 68.2854662,20.7573416 C69.1038356,26.1267608 70.3737952,31.6570203 70.9168047,34.0200494 C70.9817897,34.3053756 71.0379631,34.5510425 71.0831221,34.7515419 M71.1998747,35.3034662 C71.203179,35.3210926 71.2053819,35.3343123 71.2064833,35.3453287 C71.2053819,35.3310074 71.2020775,35.3177876 71.1998747,35.3034662 M68.2276777,32.1243051 C68.0730803,32.140621 67.9065574,32.1501167 67.7283582,32.1501167 C66.6533534,32.1501167 65.153193,31.8064034 63.2785432,30.5351047 C62.8038229,30.2123226 60.9291731,28.7548459 57.6556954,26.204537 C52.4910464,22.1813283 42.8776838,14.6934452 41.7079553,14.1767735 C39.696727,13.448586 38.3937243,14.4246437 33.7170129,18.933678 C31.4491493,21.1204439 28.8244193,21.6492336 26.6964385,20.3459872 C24.5409217,19.0251145 23.4868443,16.1509219 24.2446346,13.6601019 C25.8196928,8.48126729 30.5140273,1.86258229 38.5589402,0.254180142 C46.6236407,-1.36259438 63.4216867,5.22247516 65.9577244,6.24398218 C77.4369678,4.22427855 78.2692444,4.91761625 78.6720391,5.2538872 C79.2029329,5.69564697 79.291048,6.15613471 79.8428691,11.4098812 C80.0917944,13.7663005 80.4001974,16.6988803 80.80773,19.6468831 C81.1921323,22.4175211 81.6470268,25.2035821 82.0479507,27.6624544 C83.2176793,34.8297587 83.3135045,35.4169357 82.3133976,35.9170827 C81.6349109,36.2563894 76.1938006,37 72.6141228,37 C71.3045114,37 70.2438253,36.8997503 69.7569891,36.6452702 C69.2029651,36.3544359 69.0619809,35.9027613 69.0267348,35.6592977 C69.0058075,35.5392183 68.9110837,35.1349145 68.768998,34.5124849 C68.6296824,33.9054933 68.4427123,33.0910808 68.2276777,32.1243051 Z M67.7523154,29.9395906 C67.2041116,27.3595706 66.5821966,24.2023492 66.1079206,21.0900385 C65.2629002,15.5490274 64.8880296,10.0594599 64.7747466,8.14640037 C61.4456925,6.83417639 46.053052,1.00196981 38.9907044,2.41450659 C29.6538031,4.28179538 26.6633953,13.2811359 26.3538909,14.3012594 C25.8857792,15.836953 26.5411356,17.6678875 27.8474426,18.467682 C29.0986777,19.2344271 30.6406928,18.8389365 32.1871136,17.3473087 C36.6864933,13.0079279 38.9466468,10.8266701 42.4778613,12.1133919 C43.5429532,12.5000694 48.8816297,16.576157 59.0093644,24.4661407 C61.7288181,26.5846046 64.0781882,28.4144375 64.5154596,28.7107801 C66.015291,29.7282856 67.0979514,29.9433615 67.7523154,29.9395906 Z" id="Combined-Shape" fill-opacity="0.6"></path>
                                <path d="M2.43006808,32.779369 C4.62822434,32.8810022 9.92534773,32.7181705 11.6058987,32.6110732 C12.3945248,30.9401358 14.4116303,23.6586082 14.9536718,19.6140437 C16.3987457,8.84638773 15.634556,6.04327827 15.051417,5.33075298 C14.2472406,4.34939147 9.97977404,4.04121335 6.10328827,4.27180052 C6.11883864,6.40063375 6.07885197,11.5587923 5.47238743,17.6633418 C4.88924846,23.5515109 3.44528527,28.9664845 2.66887738,31.8766913 C2.58668255,32.1859622 2.50226624,32.5006973 2.43006808,32.779369 M4.13394464,35 C0.608452995,35 0.200811082,34.7300709 0.025314018,33.8721992 C-0.0513271047,33.487523 0.0275354998,33.1695094 0.520704463,31.3215336 C1.28045124,28.4714324 2.69553516,23.1657418 3.26201302,17.4513327 C4.0406424,9.59716207 3.86847756,3.3516375 3.86625608,3.290439 C3.84959497,2.711239 4.29278059,2.22055824 4.87925179,2.16919522 C7.1629351,1.97030013 14.7737318,1.50912578 16.7797299,3.95925109 C18.2747871,5.78209185 18.3914149,10.6987349 17.1551603,19.9003652 C16.8796966,21.9559788 16.1299464,25.3623305 15.2457967,28.5785298 C13.5985679,34.5628679 13.0476404,34.6404589 12.3500951,34.7388136 C11.8980236,34.8021977 9.02786908,34.9256875 6.44650721,34.9748649 C5.555693,34.9901645 4.79039251,35 4.13394464,35" id="Fill-6"></path>
                                <path d="M61.4202655,36 C58.1745862,36 54.9624568,34.7523451 51.0046544,31.9544126 C49.549023,30.9265573 46.4548592,27.9459894 46.3239065,27.8196311 C45.8974985,27.4087014 45.891005,26.7365605 46.3109195,26.3181979 C46.7286694,25.8998353 47.4137361,25.8924025 47.8412264,26.3054559 C47.8715295,26.3351872 50.947295,29.297704 52.2698092,30.2310561 C56.8401672,33.4622168 59.5598711,33.8763321 61.4202655,33.8763321 C61.712474,33.8763321 61.9256781,33.793509 62.112908,33.6055644 C62.6854203,33.0321741 62.8455938,31.6804594 62.8347713,31.1145019 C62.8228665,30.5283696 63.2968937,30.0441733 63.8942978,30.0314313 C64.4830439,30.0314313 64.986292,30.4858962 64.999279,31.0709667 C65.0046903,31.3396107 65.0133483,33.7351082 63.6583665,35.0931938 C63.0652914,35.6856971 62.2914799,36 61.4202655,36" id="Fill-9"></path>
                                <path d="M55.0774393,40 C51.5426399,40 47.8485071,37.7728944 45.8448357,36.3464945 C44.6520182,35.4954588 41.6508764,32.3063626 41.3136572,31.9460451 C40.8902233,31.4942184 40.8967713,30.7712955 41.3256617,30.3286197 C41.7567348,29.8848 42.4475431,29.8916632 42.8687943,30.3423461 C43.7473104,31.2780278 46.212612,33.8414297 47.0725756,34.4533976 C48.6495392,35.5778171 52.6732519,38.1366436 55.9166677,37.6516447 C56.6674989,37.5406898 57.1967912,37.2581551 57.4914487,36.8131915 C57.9650835,36.0959881 57.7828323,35.095106 57.7806497,35.0859551 C57.6496907,34.4682679 58.0218323,33.8585877 58.6100561,33.7224678 C59.2015539,33.5863478 59.7821384,33.975262 59.912006,34.5918053 C59.9534764,34.7919817 60.2928782,36.5912817 59.2844946,38.1171979 C58.6307913,39.1054974 57.6016725,39.7106021 56.2255125,39.9176417 C55.8457317,39.974835 55.4626768,40 55.0774393,40" id="Fill-11"></path>
                                <path d="M50.0004675,44 C47.2842789,44 44.4900513,42.1115733 43.0409116,41.131126 C41.4302746,40.041977 36.5918605,36.0509172 36.3870083,35.8814704 C35.9285295,35.5031456 35.8689164,34.8306867 36.2536917,34.3809598 C36.6384671,33.9301671 37.3234755,33.8704878 37.7808704,34.2498782 C37.8296447,34.290375 42.7439301,38.3432456 44.268941,39.3737809 C45.5793449,40.2604462 48.6488764,42.342831 50.7754375,41.7726796 C52.2917774,41.3698436 51.727079,38.7727241 51.7205757,38.7450158 C51.5861753,38.1716673 51.9503571,37.6004502 52.5334813,37.4672372 C53.1166056,37.3361557 53.6975622,37.6931664 53.8330464,38.2665149 C54.2080669,39.8618731 54.1701313,43.0792321 51.3401359,43.8305531 C50.900083,43.9477805 50.4513591,44 50.0004675,44" id="Fill-13"></path>
                                <path d="M41.6014508,47 C40.8644524,47 40.0440831,46.8868672 39.1425661,46.6584261 C34.9217771,45.5923675 26.5091011,39.5234478 22.6495859,36.4634244 C18.279841,32.9987338 14.4592322,28.9977504 14.2980485,28.829139 C13.8800826,28.3896618 13.904538,27.7010749 14.3536291,27.2920565 C14.8027201,26.8830381 15.5074818,26.9058822 15.9243361,27.3464473 C15.9643542,27.3866964 19.8038604,31.4072605 24.0502164,34.7729599 C28.217648,38.0788296 36.1523311,43.6571447 39.6983719,44.5513285 C40.8755685,44.848302 42.4362711,45.0549869 43.1988366,44.3479071 C44.0147594,43.5929636 43.7324101,41.9884365 43.7290753,41.9721193 C43.6090212,41.3825236 44.0003085,40.8103329 44.6016903,40.6928489 C45.2097418,40.5677502 45.7911147,40.9582758 45.9089455,41.5467836 C45.9322893,41.6610042 46.4514119,44.3337656 44.7261908,45.9295901 C43.9547324,46.6421089 42.908706,47 41.6014508,47" id="Fill-15"></path>
                                <path d="M17.0800898,7 C16.6309052,7 16.2119543,6.70678913 16.0586269,6.2405726 C15.8653479,5.65302744 16.1655241,5.01380526 16.7302441,4.81383769 C16.8706143,4.76328409 20.1930683,3.58819377 23.5371176,3.23431858 C26.8314976,2.88718386 30.7910162,3.02648711 30.9594604,3.03322759 C31.5544139,3.05457245 32.0208748,3.57583622 31.9992794,4.19483696 C31.9798435,4.80148015 31.4993456,5.27893081 30.9216684,5.27893081 C30.9087111,5.27893081 30.8957539,5.27893081 30.8827967,5.27893081 C30.8428451,5.27780739 26.9016827,5.13738073 23.7552313,5.46991107 C20.6562898,5.79794776 17.4623286,6.92810155 17.4299354,6.93821227 C17.3144,6.97977856 17.1956252,7 17.0800898,7" id="Fill-17"></path>
                            </g>
                        </g>
                    </g>
                </g>
            </g>
        </g>
    </g>
</svg>