<?xml version="1.0" encoding="UTF-8"?>
<svg width="110px" height="110px" viewBox="0 0 110 110" version="1.1" xmlns="http://www.w3.org/2000/svg" xmlns:xlink="http://www.w3.org/1999/xlink">
    <!-- Generator: Sketch 49.3 (51167) - http://www.bohemiancoding.com/sketch -->
    <title>熱情</title>
    <desc>Created with Sketch.</desc>
    <defs>
        <linearGradient x1="50%" y1="0%" x2="50%" y2="100%" id="linearGradient-1">
            <stop stop-color="#4EC7E6" offset="0%"></stop>
            <stop stop-color="#2695C9" offset="100%"></stop>
        </linearGradient>
    </defs>
    <g id="Page-1" stroke="none" stroke-width="1" fill="none" fill-rule="evenodd">
        <g id="創順官網" transform="translate(-572.000000, -2640.000000)">
            <g id="創順團隊" transform="translate(281.000000, 2181.000000)">
                <g id="Group-3" transform="translate(61.000000, 71.000000)">
                    <g id="價值觀">
                        <g id="熱情" transform="translate(230.000000, 388.000000)">
                            <circle id="Oval-3" fill="url(#linearGradient-1)" opacity="0.1" cx="55" cy="55" r="55"></circle>
                            <circle id="Oval-3" fill="url(#linearGradient-1)" cx="55" cy="55" r="45"></circle>
                            <path d="M55.6639013,32.9065727 C55.8220338,32.9065727 55.9774399,32.9462887 56.1146699,33.023073 C56.199189,33.0698497 58.1767542,34.192489 58.616617,36.5648588 C58.7256739,37.1561861 58.753847,37.781934 58.7447589,38.3450188 C59.5635945,37.5683501 60.3915182,36.1747593 60.0579858,33.8085675 C59.8562305,32.3779085 57.2052389,28.7964066 55.1913214,26.3772601 C53.9789721,27.8917641 51.5088332,31.2155531 50.7736079,33.9992044 C50.2037855,36.15446 51.1334957,37.539225 52.0550265,38.3379582 C52.0277623,37.4677362 52.0877436,36.4474759 52.4003734,35.61697 C53.3573477,33.0777929 55.5139481,32.9145159 55.6057376,32.9083379 C55.6248226,32.9065727 55.6448163,32.9065727 55.6639013,32.9065727 M53.1428692,40.9265597 C53.0292682,40.9265597 52.9156673,40.9062604 52.8057016,40.8647792 C51.0098978,40.1693077 47.90632,37.7492786 49.0132476,33.5605631 C50.1001815,29.4451015 54.3125045,24.6112214 54.4915396,24.4073459 C54.6633042,24.210531 54.9168615,24.097561 55.1831421,24.097561 L55.1858685,24.097561 C55.4521491,24.0984436 55.7057065,24.2122961 55.8774711,24.4108762 C56.4500198,25.0710446 61.4866313,30.9340107 61.8592424,33.5685063 C62.5044957,38.1464387 59.5999468,40.3537665 57.9749989,40.8815482 C57.6705484,40.9795143 57.3388336,40.9159687 57.096182,40.7156235 C56.8544392,40.5143957 56.7381118,40.2037282 56.7899139,39.8983562 C56.7926403,39.8815872 57.0752794,38.2099844 56.827175,36.8772915 C56.619058,35.7546522 55.868383,35.0406465 55.4675989,34.7326267 C55.1149815,34.8553051 54.4897219,35.2092189 54.1080228,36.2241837 C53.6954241,37.3185805 53.9162644,39.239953 54.0371358,39.8877653 C54.0952995,40.2037282 53.9735193,40.5249866 53.7172355,40.7279796 C53.5527414,40.8586011 53.3482597,40.9265597 53.1428692,40.9265597" id="Fill-1" fill-opacity="0.6" fill="#FFFFFF"></path>
                            <path d="M55.136173,78.9756098 C54.9863835,78.9756098 54.8356971,78.937985 54.7002587,78.8627356 C54.049078,78.5017174 38.6952055,69.894614 34.570164,59.6006689 C32.3044857,53.9488979 33.4202829,48.0785452 37.4807445,44.2802398 C39.7993425,42.1123391 44.617721,40.6369124 49.7177396,42.526211 C52.7906668,43.6648068 54.5136945,45.7234167 55.341573,47.019678 C57.6018697,44.8526731 63.874193,39.8548557 70.7788612,43.2339142 C74.0679517,44.8437148 76.2179244,47.4577373 76.997368,50.7937961 C78.0306464,55.2227635 76.5327514,60.4696208 72.8884715,65.1897319 C66.8762617,72.9735705 56.0071048,78.6387789 55.5478699,78.876173 C55.4187101,78.9424642 55.2769931,78.9756098 55.136173,78.9756098 Z M44.9181969,43.441746 C42.2524819,43.441746 39.9993608,44.3796766 38.7068657,45.5881469 C35.1451046,48.9197265 34.2212531,53.9094815 36.2357874,58.9350696 C39.7625678,67.7338799 52.6507436,75.5947596 55.1505241,77.0549572 C57.2269475,75.9226322 66.3542408,70.7160871 71.4677136,64.0959275 C74.7828154,59.8040215 76.16052,55.1036186 75.2492258,51.2005014 C74.5980451,48.4064178 72.7790444,46.208059 69.9886543,44.842819 C62.613091,41.2317414 55.8860175,49.0173717 55.8196437,49.0971002 C55.6169346,49.3353902 55.3039014,49.4482643 54.9917652,49.4025772 C54.6823198,49.3524109 54.4213094,49.1427874 54.3038098,48.8516437 C54.2912526,48.8229773 52.9404563,45.6311465 49.0934672,44.2058862 C47.6466979,43.6701818 46.2322186,43.441746 44.9181969,43.441746 Z" id="Combined-Shape" fill="#FFFFFF"></path>
                        </g>
                    </g>
                </g>
            </g>
        </g>
    </g>
</svg>