<?xml version="1.0" encoding="UTF-8"?>
<svg width="180px" height="34px" viewBox="0 0 180 34" version="1.1" xmlns="http://www.w3.org/2000/svg" xmlns:xlink="http://www.w3.org/1999/xlink">
    <!-- Generator: Sketch 49.3 (51167) - http://www.bohemiancoding.com/sketch -->
    <title>frontend</title>
    <desc>Created with Sketch.</desc>
    <defs></defs>
    <g id="Page-1" stroke="none" stroke-width="1" fill="none" fill-rule="evenodd">
        <g id="創順官網" transform="translate(-907.000000, -3120.000000)" fill="#2DA3DA">
            <path d="M911.661546,3121.69406 C912.608282,3120.57156 913.976791,3120 915.722992,3120 L919,3120 L919,3123.84478 L916.37118,3123.84478 C915.582735,3123.84478 914.853398,3124.06378 914.853398,3125.65177 L914.853398,3132.58023 C914.853398,3134.59149 914.007848,3136.1078 912.393889,3137.01817 C914.026883,3137.99139 914.853398,3139.46743 914.853398,3141.41879 L914.853398,3148.3826 C914.853398,3149.94408 915.620805,3150.15326 916.37118,3150.15326 L919,3150.15326 L919,3154 L915.722992,3154 C914.010853,3154 912.644348,3153.42942 911.66355,3152.30692 C910.793956,3151.29933 910.353147,3149.9323 910.353147,3148.24118 L910.353147,3141.59556 C910.353147,3140.70287 910.17983,3140.06551 909.837202,3139.70116 C909.433461,3139.2504 908.664051,3139.0039 907.472867,3138.94007 L907,3138.91453 L907,3135.08645 L907.471865,3135.05993 C908.603941,3134.99806 909.422441,3134.73389 909.838203,3134.29589 C910.175822,3133.90896 910.353147,3133.26767 910.353147,3132.40345 L910.353147,3125.79417 C910.353147,3124.07949 910.793956,3122.69871 911.661546,3121.69406 Z M1086.52687,3135.06037 L1086.9997,3135.0859 L1086.9997,3138.91508 L1086.52587,3138.93963 C1085.33579,3139.00445 1084.56444,3139.25095 1084.16975,3139.69191 C1083.81913,3140.06511 1083.64583,3140.70248 1083.64583,3141.59521 L1083.64583,3148.242 C1083.64583,3149.93316 1083.20606,3151.30023 1082.33754,3152.30589 C1081.35282,3153.43039 1079.98843,3154 1078.27744,3154 L1074.9997,3154 L1074.9997,3150.15413 L1077.6283,3150.15413 C1078.33554,3150.15413 1079.14696,3149.9528 1079.14696,3148.38244 L1079.14696,3141.41941 C1079.14696,3139.45916 1079.9684,3137.98504 1081.59124,3137.02062 C1079.9684,3136.12005 1079.14696,3134.6312 1079.14696,3132.58059 L1079.14696,3125.65194 C1079.14696,3124.05997 1078.37861,3123.84489 1077.6283,3123.84489 L1074.9997,3123.84489 L1074.9997,3120 L1078.27744,3120 C1080.02249,3120 1081.38988,3120.57158 1082.34055,3121.69804 C1083.20606,3122.69879 1083.64583,3124.07863 1083.64583,3125.79336 L1083.64583,3132.40381 C1083.64583,3133.29752 1083.83216,3133.94668 1084.1978,3134.33264 C1084.58347,3134.74119 1085.41092,3134.99948 1086.52687,3135.06037 Z" id="frontend"></path>
        </g>
    </g>
</svg>